<svg id="visual" viewBox="0 0 2880 300" width="2880" height="300" xmlns="http://www.w3.org/2000/svg" xmlns:xlink="http://www.w3.org/1999/xlink" version="1.1"><path d="M0 193L131 241L262 228L393 200L524 275L655 196L785 260L916 218L1047 188L1178 252L1309 221L1440 254L1571 234L1702 207L1833 179L1964 245L2095 249L2225 246L2356 182L2487 208L2618 261L2749 209L2880 221L2880 301L2749 301L2618 301L2487 301L2356 301L2225 301L2095 301L1964 301L1833 301L1702 301L1571 301L1440 301L1309 301L1178 301L1047 301L916 301L785 301L655 301L524 301L393 301L262 301L131 301L0 301Z" fill="#252d3e"></path><path d="M0 248L131 259L262 239L393 196L524 252L655 210L785 257L916 219L1047 250L1178 279L1309 206L1440 211L1571 223L1702 244L1833 197L1964 257L2095 240L2225 238L2356 195L2487 201L2618 249L2749 225L2880 201L2880 301L2749 301L2618 301L2487 301L2356 301L2225 301L2095 301L1964 301L1833 301L1702 301L1571 301L1440 301L1309 301L1178 301L1047 301L916 301L785 301L655 301L524 301L393 301L262 301L131 301L0 301Z" fill="#1d2a37"></path><path d="M0 272L131 230L262 251L393 222L524 274L655 272L785 275L916 269L1047 240L1178 213L1309 220L1440 235L1571 273L1702 212L1833 225L1964 253L2095 212L2225 215L2356 218L2487 279L2618 252L2749 282L2880 255L2880 301L2749 301L2618 301L2487 301L2356 301L2225 301L2095 301L1964 301L1833 301L1702 301L1571 301L1440 301L1309 301L1178 301L1047 301L916 301L785 301L655 301L524 301L393 301L262 301L131 301L0 301Z" fill="#19262f"></path><path d="M0 248L131 274L262 255L393 262L524 233L655 229L785 253L916 265L1047 249L1178 245L1309 286L1440 277L1571 286L1702 260L1833 283L1964 232L2095 249L2225 233L2356 235L2487 252L2618 224L2749 268L2880 281L2880 301L2749 301L2618 301L2487 301L2356 301L2225 301L2095 301L1964 301L1833 301L1702 301L1571 301L1440 301L1309 301L1178 301L1047 301L916 301L785 301L655 301L524 301L393 301L262 301L131 301L0 301Z" fill="#162227"></path><path d="M0 249L131 241L262 280L393 252L524 287L655 258L785 259L916 254L1047 291L1178 259L1309 277L1440 276L1571 269L1702 242L1833 292L1964 272L2095 255L2225 275L2356 292L2487 280L2618 274L2749 269L2880 288L2880 301L2749 301L2618 301L2487 301L2356 301L2225 301L2095 301L1964 301L1833 301L1702 301L1571 301L1440 301L1309 301L1178 301L1047 301L916 301L785 301L655 301L524 301L393 301L262 301L131 301L0 301Z" fill="#151e20"></path><path d="M0 296L131 265L262 283L393 295L524 255L655 271L785 286L916 274L1047 279L1178 288L1309 284L1440 295L1571 267L1702 265L1833 263L1964 256L2095 273L2225 261L2356 271L2487 264L2618 295L2749 258L2880 281L2880 301L2749 301L2618 301L2487 301L2356 301L2225 301L2095 301L1964 301L1833 301L1702 301L1571 301L1440 301L1309 301L1178 301L1047 301L916 301L785 301L655 301L524 301L393 301L262 301L131 301L0 301Z" fill="#14191a"></path><path d="M0 289L131 282L262 295L393 290L524 294L655 293L785 297L916 272L1047 275L1178 297L1309 279L1440 286L1571 278L1702 270L1833 269L1964 283L2095 275L2225 279L2356 287L2487 274L2618 277L2749 294L2880 294L2880 301L2749 301L2618 301L2487 301L2356 301L2225 301L2095 301L1964 301L1833 301L1702 301L1571 301L1440 301L1309 301L1178 301L1047 301L916 301L785 301L655 301L524 301L393 301L262 301L131 301L0 301Z" fill="#121414"></path></svg>